<svg width="16" height="16" viewBox="0 0 16 16" fill="none" xmlns="http://www.w3.org/2000/svg">
<mask id="path-1-inside-1_372_28" fill="white">
<path d="M8 5L13 10L12.3 10.7L8 6.4L3.7 10.7L3 10L8 5Z"/>
</mask>
<path d="M8 5L13 10L12.3 10.7L8 6.4L3.7 10.7L3 10L8 5Z" fill="black"/>
<path d="M8 5L8.70711 4.29289L8 3.58579L7.29289 4.29289L8 5ZM13 10L13.7071 10.7071L14.4142 10L13.7071 9.29289L13 10ZM12.3 10.7L11.5929 11.4071L12.3 12.1142L13.0071 11.4071L12.3 10.7ZM8 6.4L8.70711 5.69289L8 4.98579L7.29289 5.69289L8 6.4ZM3.7 10.7L2.99289 11.4071L3.7 12.1142L4.40711 11.4071L3.7 10.7ZM3 10L2.29289 9.29289L1.58579 10L2.29289 10.7071L3 10ZM7.29289 5.70711L12.2929 10.7071L13.7071 9.29289L8.70711 4.29289L7.29289 5.70711ZM12.2929 9.29289L11.5929 9.99289L13.0071 11.4071L13.7071 10.7071L12.2929 9.29289ZM13.0071 9.99289L8.70711 5.69289L7.29289 7.10711L11.5929 11.4071L13.0071 9.99289ZM7.29289 5.69289L2.99289 9.99289L4.40711 11.4071L8.70711 7.10711L7.29289 5.69289ZM4.40711 9.99289L3.70711 9.29289L2.29289 10.7071L2.99289 11.4071L4.40711 9.99289ZM3.70711 10.7071L8.70711 5.70711L7.29289 4.29289L2.29289 9.29289L3.70711 10.7071Z" fill="#2622FF" mask="url(#path-1-inside-1_372_28)"/>
</svg>
